REM DIRINDEX 1\2,1\3
REM DIRNAME cjc039,folder01,folder02
TITLE ""
FILE "0801-0840.mp3" MP3
  TRACK 01 AUDIO
    TITLE "0:"
    INDEX 01 00:00:00
  TRACK 02 AUDIO
    TITLE "2:cjc039_0801"
    INDEX 01 00:00:27
  TRACK 03 AUDIO
    TITLE "0:"
    INDEX 01 00:01:52
  TRACK 04 AUDIO
    TITLE "2:cjc039_0802"
    INDEX 01 00:02:18
  TRACK 05 AUDIO
    TITLE "0:"
    INDEX 01 00:03:35
  TRACK 06 AUDIO
    TITLE "2:cjc039_0803"
    INDEX 01 00:04:13
  TRACK 07 AUDIO
    TITLE "0:"
    INDEX 01 00:05:50
  TRACK 08 AUDIO
    TITLE "2:cjc039_0804"
    INDEX 01 00:06:37
  TRACK 09 AUDIO
    TITLE "0:"
    INDEX 01 00:07:56
  TRACK 10 AUDIO
    TITLE "2:cjc039_0805"
    INDEX 01 00:08:36
  TRACK 11 AUDIO
    TITLE "0:"
    INDEX 01 00:09:49
  TRACK 12 AUDIO
    TITLE "2:cjc039_0806"
    INDEX 01 00:10:19
  TRACK 13 AUDIO
    TITLE "0:"
    INDEX 01 00:11:40
  TRACK 14 AUDIO
    TITLE "2:cjc039_0807"
    INDEX 01 00:12:20
  TRACK 15 AUDIO
    TITLE "0:"
    INDEX 01 00:13:49
  TRACK 16 AUDIO
    TITLE "2:cjc039_0808"
    INDEX 01 00:14:27
  TRACK 17 AUDIO
    TITLE "0:"
    INDEX 01 00:15:64
  TRACK 18 AUDIO
    TITLE "2:cjc039_0809"
    INDEX 01 00:16:46
  TRACK 19 AUDIO
    TITLE "0:"
    INDEX 01 00:17:65
  TRACK 20 AUDIO
    TITLE "2:cjc039_0810"
    INDEX 01 00:18:50
  TRACK 21 AUDIO
    TITLE "0:"
    INDEX 01 00:19:73
  TRACK 22 AUDIO
    TITLE "2:cjc039_0811"
    INDEX 01 00:20:57
  TRACK 23 AUDIO
    TITLE "0:"
    INDEX 01 00:21:74
  TRACK 24 AUDIO
    TITLE "2:cjc039_0812"
    INDEX 01 00:22:50
  TRACK 25 AUDIO
    TITLE "0:"
    INDEX 01 00:24:08
  TRACK 26 AUDIO
    TITLE "2:cjc039_0813"
    INDEX 01 00:24:65
  TRACK 27 AUDIO
    TITLE "0:"
    INDEX 01 00:26:05
  TRACK 28 AUDIO
    TITLE "2:cjc039_0814"
    INDEX 01 00:26:60
  TRACK 29 AUDIO
    TITLE "0:"
    INDEX 01 00:27:71
  TRACK 30 AUDIO
    TITLE "2:cjc039_0815"
    INDEX 01 00:28:53
  TRACK 31 AUDIO
    TITLE "0:"
    INDEX 01 00:30:01
  TRACK 32 AUDIO
    TITLE "2:cjc039_0816"
    INDEX 01 00:30:61
  TRACK 33 AUDIO
    TITLE "0:"
    INDEX 01 00:32:07
  TRACK 34 AUDIO
    TITLE "2:cjc039_0817"
    INDEX 01 00:32:64
  TRACK 35 AUDIO
    TITLE "0:"
    INDEX 01 00:34:04
  TRACK 36 AUDIO
    TITLE "2:cjc039_0818"
    INDEX 01 00:34:59
  TRACK 37 AUDIO
    TITLE "0:"
    INDEX 01 00:36:05
  TRACK 38 AUDIO
    TITLE "2:cjc039_0819"
    INDEX 01 00:36:60
  TRACK 39 AUDIO
    TITLE "0:"
    INDEX 01 00:38:10
  TRACK 40 AUDIO
    TITLE "2:cjc039_0820"
    INDEX 01 00:38:61
  TRACK 41 AUDIO
    TITLE "0:"
    INDEX 01 00:40:36
  TRACK 42 AUDIO
    TITLE "2:cjc039_0821"
    INDEX 01 00:41:10
  TRACK 43 AUDIO
    TITLE "0:"
    INDEX 01 00:42:47
  TRACK 44 AUDIO
    TITLE "2:cjc039_0822"
    INDEX 01 00:43:19
  TRACK 45 AUDIO
    TITLE "0:"
    INDEX 01 00:44:50
  TRACK 46 AUDIO
    TITLE "2:cjc039_0823"
    INDEX 01 00:45:30
  TRACK 47 AUDIO
    TITLE "0:"
    INDEX 01 00:46:49
  TRACK 48 AUDIO
    TITLE "2:cjc039_0824"
    INDEX 01 00:47:17
  TRACK 49 AUDIO
    TITLE "0:"
    INDEX 01 00:48:34
  TRACK 50 AUDIO
    TITLE "2:cjc039_0825"
    INDEX 01 00:49:10
  TRACK 51 AUDIO
    TITLE "0:"
    INDEX 01 00:50:44
  TRACK 52 AUDIO
    TITLE "2:cjc039_0826"
    INDEX 01 00:51:22
  TRACK 53 AUDIO
    TITLE "0:"
    INDEX 01 00:52:41
  TRACK 54 AUDIO
    TITLE "2:cjc039_0827"
    INDEX 01 00:53:21
  TRACK 55 AUDIO
    TITLE "0:"
    INDEX 01 00:54:46
  TRACK 56 AUDIO
    TITLE "2:cjc039_0828"
    INDEX 01 00:55:30
  TRACK 57 AUDIO
    TITLE "0:"
    INDEX 01 00:56:55
  TRACK 58 AUDIO
    TITLE "2:cjc039_0829"
    INDEX 01 00:57:37
  TRACK 59 AUDIO
    TITLE "0:"
    INDEX 01 00:58:56
  TRACK 60 AUDIO
    TITLE "2:cjc039_0830"
    INDEX 01 00:59:38
  TRACK 61 AUDIO
    TITLE "0:"
    INDEX 01 01:00:70
  TRACK 62 AUDIO
    TITLE "2:cjc039_0831"
    INDEX 01 01:01:46
  TRACK 63 AUDIO
    TITLE "0:"
    INDEX 01 01:02:65
  TRACK 64 AUDIO
    TITLE "2:cjc039_0832"
    INDEX 01 01:03:45
  TRACK 65 AUDIO
    TITLE "0:"
    INDEX 01 01:05:21
  TRACK 66 AUDIO
    TITLE "2:cjc039_0833"
    INDEX 01 01:06:02
  TRACK 67 AUDIO
    TITLE "0:"
    INDEX 01 01:07:37
  TRACK 68 AUDIO
    TITLE "2:cjc039_0834"
    INDEX 01 01:08:27
  TRACK 69 AUDIO
    TITLE "0:"
    INDEX 01 01:09:56
  TRACK 70 AUDIO
    TITLE "2:cjc039_0835"
    INDEX 01 01:10:31
  TRACK 71 AUDIO
    TITLE "0:"
    INDEX 01 01:11:56
  TRACK 72 AUDIO
    TITLE "2:cjc039_0836"
    INDEX 01 01:12:36
  TRACK 73 AUDIO
    TITLE "0:"
    INDEX 01 01:13:49
  TRACK 74 AUDIO
    TITLE "2:cjc039_0837"
    INDEX 01 01:14:33
  TRACK 75 AUDIO
    TITLE "0:"
    INDEX 01 01:15:58
  TRACK 76 AUDIO
    TITLE "2:cjc039_0838"
    INDEX 01 01:16:34
  TRACK 77 AUDIO
    TITLE "0:"
    INDEX 01 01:18:02
  TRACK 78 AUDIO
    TITLE "2:cjc039_0839"
    INDEX 01 01:18:58
  TRACK 79 AUDIO
    TITLE "0:"
    INDEX 01 01:19:64
  TRACK 80 AUDIO
    TITLE "2:cjc039_0840"
    INDEX 01 01:20:46
  TRACK 81 AUDIO
    TITLE "0:"
    INDEX 01 01:21:61
